<svg xmlns="http://www.w3.org/2000/svg" width="1240" height="1240"><path d="M587.5 20.579c-11.82.374-37.916 2.89-52 5.014-5.5.829-13.15 1.972-17 2.539-16.713 2.464-47.796 9.663-73 16.909-8.501 2.444-34.021 11.177-36.681 12.553-1.539.795-3.04 1.405-3.336 1.354-.899-.154-9.917 3.324-10.933 4.217-.522.459-1.523.835-2.223.835s-3.647 1.088-6.55 2.417a578.893 578.893 0 01-10.724 4.75c-14.254 6.105-50.154 24.684-60.822 31.478-2.899 1.845-5.504 3.355-5.791 3.355-.287 0-1.74.846-3.23 1.879-1.491 1.034-6.985 4.622-12.21 7.973-11.939 7.659-13.301 8.592-25.5 17.469-14.1 10.261-16.399 12.02-28 21.423-18.87 15.294-59.661 55.149-73.556 71.868-4.063 4.888-7.85 9.397-8.416 10.02-5.578 6.142-29.583 37.734-31.754 41.79-.574 1.073-1.439 2.43-1.921 3.015-1.334 1.618-9.759 14.521-11.668 17.868-.927 1.626-2.141 3.685-2.699 4.576-10.056 16.064-22.696 39.576-21.772 40.5.341.34.126.619-.478.619-1.578 0-13.673 25.484-12.78 26.929.243.393-.466 1.491-1.575 2.441-1.108.949-1.833 2.267-1.611 2.928.223.661-.309 1.798-1.182 2.526-.874.728-.979 1.011-.234.627 1.033-.532.994-.136-.165 1.676-.836 1.305-2.958 5.973-4.715 10.373-1.758 4.4-4.27 10.613-5.581 13.806-1.312 3.194-1.937 5.53-1.389 5.191 1.388-.858 1.244.098-.254 1.682-1.826 1.93-8.41 21.086-13.172 38.321a36.93 36.93 0 01-.839 2.5c-1.189 3.168-5.752 20.569-5.746 21.912.004.777-.631 3.702-1.41 6.5-1.851 6.64-4.257 18.317-5.583 27.088-.581 3.85-1.685 10.6-2.451 15-2.257 12.952-3.754 26.359-3.068 27.469.35.567.195 1.031-.346 1.031-1.441 0-2.028 11.94-2.715 55.153-.418 26.327-.241 42.59.554 51 .641 6.791 1.28 13.922 1.419 15.847.806 11.179 3.773 32.188 6.639 47 .478 2.475 1.599 8.325 2.491 13 2.421 12.702 4.627 21.325 5.869 22.942.871 1.134.808 1.261-.297.595-1.046-.631-1.18-.488-.525.558.484.773 1.026 2.53 1.205 3.905.179 1.375 1.692 7.225 3.362 13 1.67 5.775 3.181 11.175 3.359 12 .179.825 1.104 3.75 2.058 6.5.953 2.75 2.082 6.35 2.509 8 .76 2.94 3.746 11.556 6.411 18.5 11.773 30.671 14.266 36.406 26.515 61 11.509 23.11 24.039 44.953 34.99 61 1.322 1.936 10.365 15.436 13.458 20.09 1.313 1.975 3.003 4.225 3.758 5 .754.776 2.46 2.985 3.79 4.91 1.331 1.925 5.816 7.713 9.967 12.862a12686.82 12686.82 0 0112.548 15.588c6.741 8.394 13.904 16.003 33.476 35.563 22.436 22.421 38.287 36.736 51.523 46.528 2.2 1.628 4.833 3.71 5.852 4.628 2.398 2.161 26.504 19.577 31.6 22.831 12.994 8.297 35.19 22 35.635 22 .289 0 4.663 2.421 9.72 5.379 10.242 5.992 41.037 21.102 52.194 25.609 7.028 2.839 10.356 4.317 13 5.771 1.65.907 3.108 1.57 3.24 1.473.131-.098.806.027 1.5.277l11.26 4.071c11.352 4.105 20.017 6.96 33 10.871 4.95 1.491 9.957 3.09 11.127 3.552 1.17.463 5.22 1.567 9 2.452 3.78.886 8.673 2.103 10.873 2.706 7.215 1.975 24.592 5.535 40 8.194 22.562 3.894 28.158 4.761 29.047 4.5.524-.154 5.678.258 11.453.917 37.165 4.237 84.255 4.282 122.5.115 5.5-.599 11.35-1.193 13-1.32 5.434-.418 19.881-2.654 26.643-4.124 3.654-.793 7.652-1.443 8.884-1.443 1.233 0 3.868-.409 5.857-.908 1.989-.5 7.216-1.654 11.616-2.566 4.4-.912 10.25-2.251 13-2.977s7.25-1.85 10-2.498c5.787-1.364 14.259-3.777 20-5.698 2.2-.736 6.475-1.995 9.5-2.799 5.6-1.488 12.892-3.909 16.5-5.478 1.1-.478 5.6-2.111 10-3.629 4.4-1.518 9.125-3.209 10.5-3.757 1.375-.549 2.95-1.101 3.5-1.227.55-.127 3.7-1.454 7-2.95 3.3-1.496 6.9-3.083 8-3.526 13.677-5.516 56.148-26.814 59.296-29.737.741-.687 1.756-1.25 2.256-1.25.836 0 24.083-14.139 33.448-20.343 7.932-5.254 34.5-24.423 35.5-25.614.275-.327 2.525-2.153 5-4.057 7.922-6.094 22.3-18.22 28.988-24.446 23.797-22.155 44.957-44.123 41.376-42.958-1.486.483-1.569.398-.412-.422.799-.565 1.761-.837 2.139-.604.671.415 6.589-6.026 14.752-16.056 2.238-2.75 5.552-6.78 7.363-8.956 1.812-2.175 2.619-3.604 1.794-3.175-.825.428-.6.039.5-.865 1.1-.905 1.887-2.063 1.75-2.575-.138-.511.177-.817.699-.679 1.1.29 8.874-9.674 10.143-13 .472-1.238 1.308-2.25 1.858-2.25.549 0 1.675-1.307 2.501-2.905.826-1.598 2.075-3.523 2.776-4.277 1.413-1.523 4.548-5.88 8.324-11.571 1.367-2.061 2.937-4.422 3.49-5.247 6.701-10.014 9.669-14.964 8.671-14.462-.666.336-.504.014.361-.714.866-.728 2.869-3.574 4.452-6.324 1.584-2.75 3.126-5.225 3.427-5.5.301-.275 1.898-3.184 3.548-6.465 1.65-3.281 3.563-6.576 4.25-7.322.688-.746 1.25-1.783 1.25-2.304 0-.522 1.091-2.677 2.424-4.788 1.333-2.112 2.571-4.691 2.75-5.731.179-1.039.909-2.349 1.621-2.909.712-.561 1.369-2.004 1.459-3.207.091-1.204.365-1.988.61-1.743.428.427 6.29-10.978 6.698-13.031.109-.55 1.862-4.6 3.895-9 6.495-14.056 8.959-19.848 10.849-25.5.828-2.475 1.948-5.625 2.49-7 .542-1.375 1.763-4.525 2.714-7 .951-2.475 2.078-5.4 2.504-6.5 1.622-4.189 3.971-11.445 7.769-24 6.085-20.118 6.973-23.463 10.751-40.5.915-4.125 2.248-9.975 2.962-13 .713-3.025 1.812-9.1 2.441-13.5.629-4.4 1.775-11.375 2.547-15.5 4.168-22.274 6.502-55.882 6.509-93.75.004-17.737-.331-32.25-.743-32.25s-.784-2.587-.826-5.75c-.145-10.873-.634-18.752-1.225-19.722-.325-.535-.465-2.722-.311-4.861.155-2.139-.095-3.663-.553-3.386-.459.277-.957-2.656-1.106-6.518-.149-3.862-.582-7.526-.963-8.142-.381-.616-.557-2.408-.392-3.983.165-1.575-.078-2.63-.541-2.344-.463.286-.861-.676-.885-2.137-.14-8.479-.566-12.519-1.213-11.504-.404.635-.843-1.31-.976-4.321-.133-3.01-.92-8.094-1.75-11.297-.83-3.203-1.509-7.023-1.509-8.488 0-1.466-.408-2.413-.907-2.105-.498.309-.653-.41-.342-1.597.335-1.282.166-1.912-.418-1.551-.539.334-.98-.159-.979-1.094.007-5.078-.441-8.265-1.104-7.86-.412.252-.833-1.102-.934-3.009-.101-1.906-.776-4.197-1.5-5.091-1.117-1.379-1.089-1.493.184-.76.893.514.69-.085-.5-1.48-1.1-1.289-1.434-2.013-.742-1.608.951.557 1.044.173.379-1.578-.483-1.273-1.591-4.789-2.461-7.814-4.643-16.129-6.948-23.703-7.762-25.5-.498-1.1-1.778-4.7-2.845-8-1.068-3.3-2.903-8.475-4.08-11.5-1.176-3.025-2.494-6.625-2.928-8-2.185-6.92-14.112-33.608-22.41-50.141-7.879-15.699-24.826-46.167-26.621-47.859-.291-.275-1.396-2.075-2.455-4-1.058-1.925-2.183-3.725-2.5-4-.316-.275-2.332-3.2-4.479-6.5-21.632-33.247-44.712-61.424-75.691-92.409-10.673-10.675-23.905-23.264-29.405-27.975-5.5-4.711-10.45-9.063-11-9.67-.55-.608-5.666-4.669-11.369-9.025-5.703-4.357-12.181-9.403-14.396-11.214-2.215-1.811-4.974-3.791-6.131-4.4-1.157-.608-2.329-1.422-2.604-1.807-.275-.386-2.525-1.961-5-3.5s-4.725-3.077-5-3.417c-1.504-1.858-35.022-22.713-48-29.865-6.52-3.593-38.279-19.628-39-19.69-.275-.024-2.075-.793-4-1.71-5.405-2.573-32.313-13.926-34-14.345-.825-.205-5.325-1.773-10-3.484-11.981-4.386-23.131-7.963-42-13.476-14.501-4.236-46.226-11.15-62-13.512-4.125-.617-11.55-1.747-16.5-2.511-20.553-3.171-40.085-4.531-70-4.873-17.05-.195-35.5-.212-41-.038M612 217c-.901.582-1.025.975-.309.985.655.008 1.469-.435 1.809-.985.767-1.242.421-1.242-1.5 0m-7 3c-.825.533-1.05.969-.5.969s1.675-.436 2.5-.969c.825-.533 1.05-.969.5-.969s-1.675.436-2.5.969m-20 8c-.825.533-1.05.969-.5.969s1.675-.436 2.5-.969c.825-.533 1.05-.969.5-.969s-1.675.436-2.5.969m-12.493 4.989c-.35.566.051.734.941.393 1.732-.665 2.049-1.382.611-1.382-.518 0-1.216.445-1.552.989m-7 3c-.35.566.051.734.941.393 1.732-.665 2.049-1.382.611-1.382-.518 0-1.216.445-1.552.989M560 238c-.901.582-1.025.975-.309.985.655.008 1.469-.435 1.809-.985.767-1.242.421-1.242-1.5 0m-15 6c-.825.533-1.05.969-.5.969s1.675-.436 2.5-.969c.825-.533 1.05-.969.5-.969s-1.675.436-2.5.969m-6.493 2.989c-.35.566.051.734.941.393 1.732-.665 2.049-1.382.611-1.382-.518 0-1.216.445-1.552.989M515 257c-.901.582-1.025.975-.309.985.655.008 1.469-.435 1.809-.985.767-1.242.421-1.242-1.5 0m-11 5c-.901.582-1.025.975-.309.985.655.008 1.469-.435 1.809-.985.767-1.242.421-1.242-1.5 0m-11.493 5.989c-.35.566.051.734.941.393 1.732-.665 2.049-1.382.611-1.382-.518 0-1.216.445-1.552.989M488 270c-.901.582-1.025.975-.309.985.655.008 1.469-.435 1.809-.985.767-1.242.421-1.242-1.5 0m-5 3c-.901.582-1.025.975-.309.985.655.008 1.469-.435 1.809-.985.767-1.242.421-1.242-1.5 0m-39.128 26.75c-1.243 1.586-1.208 1.621.378.378 1.666-1.307 2.195-2.128 1.372-2.128-.207 0-.995.788-1.75 1.75m7.09 15.173c-9.98 1.955-17.814 8.285-23.494 18.981L424 340.435v112.782c0 106.716-.094 112.787-1.75 112.862-1.045.047-1.247.282-.5.583.986.398 1.25 18.618 1.25 86.391v85.887l-12.75.313-12.75.312 13.25.218L424 740v164.683l4.205 1.26c2.5.749 6.624 3.449 10.17 6.659l5.966 5.398H588V799.5c0-65.175.337-118.499.75-118.498.413.001.598-2.947.412-6.551-.185-3.604-.024-7.317.36-8.252.383-.934.868-3.049 1.077-4.699.732-5.779 1.033-7.018 2.248-9.25.673-1.237 1.013-2.25.757-2.25-.257 0 1.59-2.138 4.105-4.75 2.515-2.612 4.959-4.638 5.432-4.5.472.137.859-.129.859-.592 0-1.422 7.421-3.158 13.5-3.158 12.07 0 20.002 4.14 23.959 12.505 1.457 3.08 2.841 7.039 3.076 8.798 2.124 15.897 2.463 35.472 2.464 141.947L647 918h164.099l-.382-154.75c-.339-137.423-.564-155.796-2.012-164.094-.896-5.139-1.892-10.169-2.212-11.179-.454-1.43.035-1.928 2.212-2.256 2.574-.388 2.53-.433-.562-.571-2.422-.108-3.208-.538-2.822-1.543.532-1.388-1.532-10.14-4.86-20.607-1.591-5.004-4.483-11.975-7.993-19.267-.833-1.73-.915-2.509-.218-2.079.612.379-.206-1.076-1.819-3.233-1.612-2.156-3.268-4.071-3.681-4.254-.413-.184-.75-.731-.75-1.218 0-.486-2.745-4.995-6.101-10.02-6.9-10.333-18.164-22.657-24.884-27.227-2.483-1.688-4.74-3.329-5.015-3.645-3.421-3.937-28.6-16.529-35-17.504-.275-.042-1.85-.585-3.5-1.207-12.091-4.559-45.219-6.123-60.136-2.839-4.325.952-9.214 2.234-10.864 2.85-1.65.616-3.225 1.154-3.5 1.196-6.456.983-25.648 10.091-39.5 18.744l-9 5.623-.255-91.114c-.183-65.301-.572-91.495-1.373-92.46-.917-1.105-12.858-1.325-66.744-1.231-36.096.063-67.22.427-69.166.808m-94.557 60.327l-1.905 2.25 2.25-1.905c2.114-1.79 2.705-2.595 1.905-2.595-.19 0-1.202 1.012-2.25 2.25m-29.533 22.5c-1.243 1.586-1.208 1.621.378.378 1.666-1.307 2.195-2.128 1.372-2.128-.207 0-.995.788-1.75 1.75m-40 24c-1.243 1.586-1.208 1.621.378.378.962-.755 1.75-1.543 1.75-1.75 0-.823-.821-.294-2.128 1.372M1140 423l-4.5.7 4.191.15c2.305.082 4.469-.3 4.809-.85.34-.55.479-.932.309-.85-.17.083-2.334.465-4.809.85m-19.25 2.662c.688.278 1.813.278 2.5 0 .688-.277.125-.504-1.25-.504s-1.937.227-1.25.504m-5.481 1.031c.973.254 2.323.237 3-.037.677-.274-.119-.481-1.769-.461-1.65.02-2.204.244-1.231.498M1099.5 429c-2.548 1.095.081 1.095 3.5 0 2.01-.644 2.108-.806.5-.83-1.1-.016-2.9.357-4 .83m-11.687 2.683c.721.289 1.584.253 1.916-.079.332-.332-.258-.568-1.312-.525-1.165.048-1.402.285-.604.604m-10 2c.721.289 1.584.253 1.916-.079.332-.332-.258-.568-1.312-.525-1.165.048-1.402.285-.604.604m-4 1c.721.289 1.584.253 1.916-.079.332-.332-.258-.568-1.312-.525-1.165.048-1.402.285-.604.604m-8.563 1.348c-1.237.498-2.25 1.102-2.25 1.343 0 .744 3.998-.562 4.575-1.495.636-1.029.609-1.027-2.325.152M1054 439c-.825.533-1.05.969-.5.969s1.675-.436 2.5-.969c.825-.533 1.05-.969.5-.969s-1.675.436-2.5.969m-11.5 3c-1.261.542-1.445.859-.5.859.825 0 2.4-.386 3.5-.859 1.261-.542 1.445-.859.5-.859-.825 0-2.4.386-3.5.859m-801.993.989c-.35.566.051.734.941.393 1.732-.665 2.049-1.382.611-1.382-.518 0-1.216.445-1.552.989M1034.5 444c-1.63.701-1.688.872-.309.93.93.038 1.969-.38 2.309-.93.711-1.15.676-1.15-2 0M235 445c-.901.582-1.025.975-.309.985.655.008 1.469-.435 1.809-.985.767-1.242.421-1.242-1.5 0m789.5 2c-1.319.567-1.489.878-.5.914.825.031 2.175-.381 3-.914 1.828-1.181.249-1.181-2.5 0M227 448c-.825.533-1.05.969-.5.969s1.675-.436 2.5-.969c.825-.533 1.05-.969.5-.969s-1.675.436-2.5.969m-7.493 2.989c-.35.566.051.734.941.393 1.732-.665 2.049-1.382.611-1.382-.518 0-1.216.445-1.552.989M997.5 455c-1.319.567-1.489.878-.5.914.825.031 2.175-.381 3-.914 1.828-1.181.249-1.181-2.5 0m-800.993 3.989c-.35.566.051.734.941.393 1.732-.665 2.049-1.382.611-1.382-.518 0-1.216.445-1.552.989M981 460c-.901.582-1.025.975-.309.985.655.008 1.469-.435 1.809-.985.767-1.242.421-1.242-1.5 0m-793 1c-1.828 1.181-.249 1.181 2.5 0 1.319-.567 1.489-.878.5-.914-.825-.031-2.175.381-3 .914m-10 3c-1.828 1.181-.249 1.181 2.5 0 1.319-.567 1.489-.878.5-.914-.825-.031-2.175.381-3 .914m-10.187 2.683c.721.289 1.584.253 1.916-.079.332-.332-.258-.568-1.312-.525-1.165.048-1.402.285-.604.604M948 471c-.825.533-1.05.969-.5.969s1.675-.436 2.5-.969c.825-.533 1.05-.969.5-.969s-1.675.436-2.5.969m-802.187.683c.721.289 1.584.253 1.916-.079.332-.332-.258-.568-1.312-.525-1.165.048-1.402.285-.604.604m-4 1c.721.289 1.584.253 1.916-.079.332-.332-.258-.568-1.312-.525-1.165.048-1.402.285-.604.604m-7 1c.721.289 1.584.253 1.916-.079.332-.332-.258-.568-1.312-.525-1.165.048-1.402.285-.604.604M939 474c-.825.533-1.05.969-.5.969s1.675-.436 2.5-.969c.825-.533 1.05-.969.5-.969s-1.675.436-2.5.969m-811.388.819c-.279.451.82.624 2.441.387 1.621-.238 2.947-.607 2.947-.819 0-.762-4.893-.37-5.388.432m-12.862 1.843c.688.278 1.813.278 2.5 0 .688-.277.125-.504-1.25-.504s-1.937.227-1.25.504m-6.5 1.027c.963.252 2.537.252 3.5 0 .963-.251.175-.457-1.75-.457s-2.713.206-1.75.457m-66.5 2.034c1.788.222 4.712.222 6.5 0 1.788-.221.325-.403-3.25-.403s-5.038.182-3.25.403m39.978-.001c1.775.221 4.925.224 7 .008 2.074-.217.622-.397-3.228-.402-3.85-.004-5.548.173-3.772.394M918 481c-.901.582-1.025.975-.309.985.655.008 1.469-.435 1.809-.985.767-1.242.421-1.242-1.5 0m-8 3c-.901.582-1.025.975-.309.985.655.008 1.469-.435 1.809-.985.767-1.242.421-1.242-1.5 0m-9 3c-.825.533-1.05.969-.5.969s1.675-.436 2.5-.969c.825-.533 1.05-.969.5-.969s-1.675.436-2.5.969m-8 3c-.825.533-1.05.969-.5.969s1.675-.436 2.5-.969c.825-.533 1.05-.969.5-.969s-1.675.436-2.5.969m-6 2c-.825.533-1.05.969-.5.969s1.675-.436 2.5-.969c.825-.533 1.05-.969.5-.969s-1.675.436-2.5.969m-8 3c-.825.533-1.05.969-.5.969s1.675-.436 2.5-.969c.825-.533 1.05-.969.5-.969s-1.675.436-2.5.969m-6 2c-.901.582-1.025.975-.309.985.655.008 1.469-.435 1.809-.985.767-1.242.421-1.242-1.5 0m-8.493 2.989c-.35.566.051.734.941.393 1.732-.665 2.049-1.382.611-1.382-.518 0-1.216.445-1.552.989M856 503c-.825.533-1.05.969-.5.969s1.675-.436 2.5-.969c.825-.533 1.05-.969.5-.969s-1.675.436-2.5.969m-28 10c-.901.582-1.025.975-.309.985.655.008 1.469-.435 1.809-.985.767-1.242.421-1.242-1.5 0m-667.917 2.362c.23.2 9.867.57 21.417.824 11.55.253 17.85.146 14-.239-7.35-.733-36.134-1.209-35.417-.585M820 516c-.901.582-1.025.975-.309.985.655.008 1.469-.435 1.809-.985.767-1.242.421-1.242-1.5 0m-668.75.716c1.512.229 3.988.229 5.5 0s.275-.416-2.75-.416-4.262.187-2.75.416M126 519c-3.374.71-3.392.737-.5.75 1.65.007 4.35-.33 6-.75 2.662-.677 2.718-.762.5-.75-1.375.007-4.075.345-6 .75m91.083-.625c.23.206 3.117.626 6.417.933 3.945.366 4.973.279 3-.257-3.085-.837-10.161-1.345-9.417-.676M811 519c-.825.533-1.05.969-.5.969s1.675-.436 2.5-.969c.825-.533 1.05-.969.5-.969s-1.675.436-2.5.969m-698 2c-2.327.745-2.349.808-.309.9 1.205.055 2.469-.35 2.809-.9.34-.55.479-.955.309-.9a2527 2527 0 01-2.809.9m126.269.693c.973.254 2.323.237 3-.037.677-.274-.119-.481-1.769-.461-1.65.02-2.204.244-1.231.498M99.5 524c-1.319.567-1.489.878-.5.914.825.031 2.175-.381 3-.914 1.828-1.181.249-1.181-2.5 0m153 0c1.1.473 2.9.846 4 .83 1.608-.024 1.51-.186-.5-.83-3.419-1.095-6.048-1.095-3.5 0m544.5 0c-.825.533-1.05.969-.5.969s1.675-.436 2.5-.969c.825-.533 1.05-.969.5-.969s-1.675.436-2.5.969m-709 3c-1.828 1.181-.249 1.181 2.5 0 1.319-.567 1.489-.878.5-.914-.825-.031-2.175.381-3 .914m179.5 0c1.1.473 2.675.859 3.5.859.945 0 .761-.317-.5-.859-1.1-.473-2.675-.859-3.5-.859-.945 0-.761.317.5.859m520.5 0c-.825.533-1.05.969-.5.969s1.675-.436 2.5-.969c.825-.533 1.05-.969.5-.969s-1.675.436-2.5.969m-707 2c-.901.582-1.025.975-.309.985.655.008 1.469-.435 1.809-.985.767-1.242.421-1.242-1.5 0m196.818.218c.533.533 1.805.793 2.826.576 1.375-.291 1.123-.543-.97-.969-1.825-.373-2.482-.233-1.856.393M72 532c-.825.533-1.05.969-.5.969s1.675-.436 2.5-.969c.825-.533 1.05-.969.5-.969s-1.675.436-2.5.969m-8 3c-.901.582-1.025.975-.309.985.655.008 1.469-.435 1.809-.985.767-1.242.421-1.242-1.5 0m235.813-.317c.721.289 1.584.253 1.916-.079.332-.332-.258-.568-1.312-.525-1.165.048-1.402.285-.604.604m9.955 2.485c.582.582 1.647.86 2.369.62.749-.25.295-.703-1.057-1.057-1.663-.435-2.054-.305-1.312.437M320 540c.825.533 2.175.945 3 .914.989-.036.819-.347-.5-.914-2.749-1.181-4.328-1.181-2.5 0m8.768 2.168c.582.582 1.647.86 2.369.62.749-.25.295-.703-1.057-1.057-1.663-.435-2.054-.305-1.312.437M338.5 545c1.1.473 2.675.859 3.5.859.945 0 .761-.317-.5-.859-1.1-.473-2.675-.859-3.5-.859-.945 0-.761.317.5.859m10.5 3c.825.533 2.175.945 3 .914.989-.036.819-.347-.5-.914-2.749-1.181-4.328-1.181-2.5 0m8.768 2.168c.582.582 1.647.86 2.369.62.749-.25.295-.703-1.057-1.057-1.663-.435-2.054-.305-1.312.437M367.5 553c2.749 1.181 4.328 1.181 2.5 0-.825-.533-2.175-.945-3-.914-.989.036-.819.347.5.914m11 3c2.749 1.181 4.328 1.181 2.5 0-.825-.533-2.175-.945-3-.914-.989.036-.819.347.5.914m9.268 2.168c.582.582 1.647.86 2.369.62.749-.25.295-.703-1.057-1.057-1.663-.435-2.054-.305-1.312.437M409.5 564c1.1.473 2.675.859 3.5.859.945 0 .761-.317-.5-.859-1.1-.473-2.675-.859-3.5-.859-.945 0-.761.317.5.859m795.5 19c-.901.582-1.025.975-.309.985.655.008 1.469-.435 1.809-.985.767-1.242.421-1.242-1.5 0m-351 2.614c5.969.751 12.775.826 12.347.136-.256-.413-3.701-.683-7.656-.6-3.955.082-6.066.291-4.691.464m36.5 2.432c2.75.428 6.575.758 8.5.733 2.831-.037 2.545-.195-1.5-.825-2.75-.428-6.575-.758-8.5-.733-2.831.037-2.545.195 1.5.825m299-.046c-1.319.567-1.489.878-.5.914.825.031 2.175-.381 3-.914 1.828-1.181.249-1.181-2.5 0m-266 3.046c2.75.428 6.575.758 8.5.733 2.831-.037 2.545-.195-1.5-.825-2.75-.428-6.575-.758-8.5-.733-2.831.037-2.545.195 1.5.825m28 2.46c2.286.797 8.322 1.015 7.871.285-.269-.435-2.375-.755-4.68-.712-2.305.043-3.741.236-3.191.427m214.089.35c-.291.47.583.643 1.941.383 1.359-.26 2.47-.645 2.47-.856 0-.773-3.899-.356-4.411.473m-184.089 2.19c2.75.428 6.8.755 9 .726 3.483-.047 3.289-.152-1.5-.814-3.025-.418-7.075-.745-9-.725-2.805.027-2.507.189 1.5.813M1149 596c-1.959.627-2.067.797-.5.782 1.1-.01 3.35-.362 5-.782 2.695-.686 2.746-.765.5-.782-1.375-.01-3.625.342-5 .782m-126.5 2.992c7.466.81 23.112 1.255 22.417.638-.229-.204-6.942-.602-14.917-.884-9.243-.328-11.962-.238-7.5.246m103.25-.286c1.237.238 3.263.238 4.5 0 1.237-.239.225-.434-2.25-.434s-3.487.195-2.25.434m-10.5 1.01c1.513.229 3.987.229 5.5 0s.275-.416-2.75-.416-4.263.187-2.75.416M621 662c-.901.582-1.025.975-.309.985.655.008 1.469-.435 1.809-.985.767-1.242.421-1.242-1.5 0m-19 11c-.901.582-1.025.975-.309.985.655.008 1.469-.435 1.809-.985.767-1.242.421-1.242-1.5 0m-393.25 29.743c3.988.189 10.512.189 14.5 0 3.988-.19.725-.346-7.25-.346s-11.238.156-7.25.346M184.5 705c-2.548 1.095.081 1.095 3.5 0 2.01-.644 2.108-.806.5-.83-1.1-.016-2.9.357-4 .83m61 0c1.65.42 3.9.772 5 .782 1.567.015 1.459-.155-.5-.782-1.375-.44-3.625-.792-5-.782-2.246.017-2.195.096.5.782m15.5 2.383c0 .211.901.619 2.001.907 1.101.288 1.75.115 1.441-.383-.538-.871-3.442-1.313-3.442-.524m13.813 3.3c.721.289 1.584.253 1.916-.079.332-.332-.258-.568-1.312-.525-1.165.048-1.402.285-.604.604m-117.306 2.306c-.35.566.051.734.941.393 1.732-.665 2.049-1.382.611-1.382-.518 0-1.216.445-1.552.989M283.5 713c1.1.473 2.675.859 3.5.859.945 0 .761-.317-.5-.859-1.1-.473-2.675-.859-3.5-.859-.945 0-.761.317.5.859m-132.993 2.989c-.35.566.051.734.941.393 1.732-.665 2.049-1.382.611-1.382-.518 0-1.216.445-1.552.989M294 715.393c0 .216.698.661 1.552.989.89.341 1.291.173.941-.393-.587-.951-2.493-1.406-2.493-.596m8.5 2.607c2.749 1.181 4.328 1.181 2.5 0-.825-.533-2.175-.945-3-.914-.989.036-.819.347.5.914m-162.993 2.989c-.35.566.051.734.941.393 1.732-.665 2.049-1.382.611-1.382-.518 0-1.216.445-1.552.989M321 723.393c0 .216.698.661 1.552.989.89.341 1.291.173.941-.393-.587-.951-2.493-1.406-2.493-.596m8 2.607c.825.533 1.95.969 2.5.969s.325-.436-.5-.969c-.825-.533-1.95-.969-2.5-.969s-.325.436.5.969m27.75 7.662c.688.278 1.813.278 2.5 0 .688-.277.125-.504-1.25-.504s-1.937.227-1.25.504m5.063 1.021c.721.289 1.584.253 1.916-.079.332-.332-.258-.568-1.312-.525-1.165.048-1.402.285-.604.604m10.937 1.979c.688.278 1.813.278 2.5 0 .688-.277.125-.504-1.25-.504s-1.937.227-1.25.504m5 1c.688.278 1.813.278 2.5 0 .688-.277.125-.504-1.25-.504s-1.937.227-1.25.504M88.872 753.75c-1.269 1.619-1.222 1.64.628.283 1.1-.807 2.188-1.594 2.417-1.75.229-.156-.054-.283-.628-.283s-1.662.788-2.417 1.75m1093.878 22.956c1.237.238 3.263.238 4.5 0 1.237-.239.225-.434-2.25-.434s-3.487.195-2.25.434m-23.5 1.983c.963.252 2.537.252 3.5 0 .963-.251.175-.457-1.75-.457s-2.713.206-1.75.457M1142.5 781c-2.548 1.095.081 1.095 3.5 0 2.01-.644 2.108-.806.5-.83-1.1-.016-2.9.357-4 .83m-13.5 3c-1.828 1.181-.249 1.181 2.5 0 1.319-.567 1.489-.878.5-.914-.825-.031-2.175.381-3 .914m-7.5 2c-1.63.701-1.688.872-.309.93.93.038 1.969-.38 2.309-.93.711-1.15.676-1.15-2 0m-9.942 2.907c-.309.498.34.671 1.441.383 2.335-.611 2.63-1.29.56-1.29-.793 0-1.693.408-2.001.907M1091 797c-.825.533-1.05.969-.5.969s1.675-.436 2.5-.969c.825-.533 1.05-.969.5-.969s-1.675.436-2.5.969m-24 13c-.901.582-1.025.975-.309.985.655.008 1.469-.435 1.809-.985.767-1.242.421-1.242-1.5 0m-83.595 73.25l-1.905 2.25 2.25-1.905c1.237-1.048 2.25-2.06 2.25-2.25 0-.8-.805-.209-2.595 1.905m-8 8l-1.905 2.25 2.25-1.905c2.114-1.79 2.705-2.595 1.905-2.595-.19 0-1.202 1.013-2.25 2.25m-427.322 75.117c.23.202 2.217.642 4.417.977 2.788.424 3.394.334 2-.297-1.92-.87-7.276-1.437-6.417-.68m9.667 1.295c.688.278 1.813.278 2.5 0 .688-.277.125-.504-1.25-.504s-1.937.227-1.25.504m14.5 1.027c.962.252 2.538.252 3.5 0 .962-.251.175-.457-1.75-.457s-2.712.206-1.75.457m7.019 1.004c.973.254 2.323.237 3-.037.677-.274-.119-.481-1.769-.461-1.65.02-2.204.244-1.231.498m18.231 2.364c2.2.455 5.125.802 6.5.77 1.604-.036 1.066-.354-1.5-.884-2.2-.455-5.125-.802-6.5-.77-1.604.036-1.066.354 1.5.884m268.007-.068c-.35.566.051.734.941.393 1.732-.665 2.049-1.382.611-1.382-.518 0-1.216.445-1.552.989m-249.238 2.704c.973.254 2.323.237 3-.037.677-.274-.119-.481-1.769-.461-1.65.02-2.204.244-1.231.498M632 977c1.375.44 3.4.801 4.5.801 1.584 0 1.48-.167-.5-.801-1.375-.44-3.4-.801-4.5-.801-1.584 0-1.48.167.5.801m220 0c-.901.582-1.025.975-.309.985.655.008 1.469-.435 1.809-.985.767-1.242.421-1.242-1.5 0m-202 3c1.375.44 3.4.801 4.5.801 1.584 0 1.48-.167-.5-.801-1.375-.44-3.4-.801-4.5-.801-1.584 0-1.48.167.5.801m192.5 0c-1.319.567-1.489.878-.5.914.825.031 2.175-.381 3-.914 1.828-1.181.249-1.181-2.5 0m-176.682 2.218c.533.533 1.805.793 2.826.576 1.375-.291 1.123-.543-.97-.969-1.825-.373-2.482-.233-1.856.393M683.5 985c1.65.42 4.125.763 5.5.763 2.23 0 2.176-.082-.5-.763-1.65-.42-4.125-.763-5.5-.763-2.23 0-2.176.082.5.763m139 0c-1.319.567-1.489.878-.5.914.825.031 2.175-.381 3-.914 1.828-1.181.249-1.181-2.5 0M706 988.051c2.475.44 5.85.778 7.5.75 2.213-.038 1.819-.261-1.5-.852-2.475-.44-5.85-.778-7.5-.75-2.213.038-1.819.261 1.5.852m99.5-.051c-4.159 1.058-.066 1.105 5 .057 3.363-.695 3.522-.826 1-.824-1.65.002-4.35.347-6 .767m-20.5 2l-7.5.64 7.191.18c3.955.099 7.469-.27 7.809-.82.34-.55.479-.919.309-.82-.17.099-3.684.468-7.809.82m-50.224.733c2.352.212 5.952.209 8-.006s.124-.388-4.276-.384c-4.4.003-6.076.179-3.724.39m315.731 27.256c-.35.566.051.734.941.393 1.732-.665 2.049-1.382.611-1.382-.518 0-1.216.445-1.552.989" fill="undefined" fill-rule="evenodd"/></svg>